<?xml version="1.0" encoding="UTF-8"?>
<svg id="_レイヤー_1" data-name="レイヤー 1" xmlns="http://www.w3.org/2000/svg" viewBox="0 0 961.98 962">
  <defs>
    <style>
      .cls-1 {
        fill: #4caf50;
      }
    </style>
  </defs>
  <path class="cls-1" d="M481.97,440.81l1.2-.69.54-.3c7.43-4.14,17.27-1.94,23.82,5.27l.57.55,105.3,124.59c6,6.72,6.1,16.39.26,21.58-5.85,5.2-15.43,3.95-21.41-2.77l-98.43-105.15"/>
  <path class="cls-1" d="M188.72,480.98c0-6.45.14-12.9.82-19.23h-76.46c-.47,6.33-.59,12.78-.59,19.23s.12,12.92.59,19.26h76.46c-.68-6.34-.82-12.78-.82-19.26Z"/>
  <path class="cls-1" d="M323.95,234.48c7.23-4.58,14.61-8.89,22.1-12.72l2.92-1.42-38.1-66.17c-9.53,4.81-18.82,10.14-27.83,15.99l38.12,66.2,2.8-1.89Z"/>
  <path class="cls-1" d="M154.2,310.85l66.19,38.1,16.02-27.8-66.22-38.12c-5.85,9.01-11.18,18.27-15.99,27.82Z"/>
  <path class="cls-1" d="M740.25,615.93c-3.98,7.51-8.16,14.86-12.86,21.99l-1.91,2.79,66.21,38.12c5.86-9.01,11.19-18.15,16.13-27.68l-66.04-38.24-1.53,3.02Z"/>
  <path class="cls-1" d="M221.79,615.81l-1.53-2.9-66.06,38.1c4.7,9.53,10.14,18.8,15.99,27.82l66.22-38.12-1.93-2.79c-4.57-7.12-8.88-14.47-12.7-22.11Z"/>
  <path class="cls-1" d="M323.95,727.37l-2.8-1.91-38.12,66.22c9.01,5.85,18.3,11.31,27.83,16.14l38.1-66.2-2.92-1.41c-7.49-3.82-14.87-8.13-22.1-12.83Z"/>
  <path class="cls-1" d="M612.92,220.24l27.83,16.14,38.11-66.2c-9.01-5.85-18.18-11.19-27.68-15.99l-38.26,66.06Z"/>
  <path class="cls-1" d="M461.77,772.46v76.37c6.34.56,12.78.69,19.22.69s12.91-.12,19.24-.69v-77.16h-38.46v.79Z"/>
  <path class="cls-1" d="M500.23,189.54v-76.36c-6.33-.57-12.77-.69-19.24-.69s-12.87.12-19.22.69v77.16h38.46v-.79Z"/>
  <path class="cls-1" d="M612.92,741.74l38.26,66.08c9.5-4.97,18.67-10.28,27.68-16.14l-38.11-66.22-27.83,16.28Z"/>
  <path class="cls-1" d="M807.82,310.85c-4.83-9.54-10.27-18.8-16.13-27.82l-66.21,38.12,16.16,27.8,66.18-38.1Z"/>
  <path class="cls-1" d="M848.93,461.75h-77.25v38.49h77.25c.48-6.34.58-12.78.58-19.26s-.11-12.9-.58-19.23Z"/>
  <path class="cls-1" d="M480.99,0C215.32.02.02,215.34,0,481c.02,265.66,215.32,480.98,480.99,481,265.67-.02,480.97-215.34,480.99-481C961.96,215.34,746.66.02,480.99,0ZM480.99,899.93c-115.79-.02-220.34-46.83-296.23-122.7-75.86-75.92-122.68-180.46-122.69-296.23,0-115.78,46.83-220.33,122.69-296.21,75.9-75.89,180.44-122.7,296.23-122.72,115.78.02,220.32,46.83,296.23,122.72,75.86,75.89,122.68,180.42,122.69,296.21,0,115.77-46.83,220.31-122.69,296.23-75.91,75.87-180.46,122.68-296.23,122.7Z"/>
  <path class="cls-1" d="M507.06,446c-17.35-18.68-29.44,0-29.44,0v226.17c-11-4.04-24-5.23-37.4-2.65-32.18,6.18-54.33,31.57-49.5,56.67,4.84,25.11,34.84,40.45,67.01,34.24,28.56-5.5,49.19-26.12,50.07-48.27h.18v-174.55"/>
</svg>